<?xml version="1.0" encoding="UTF-8"?>
<svg version="1.1" xmlns="http://www.w3.org/2000/svg" width="48" height="48">
<path d="M0 0 C15.84 0 31.68 0 48 0 C48 15.84 48 31.68 48 48 C32.16 48 16.32 48 0 48 C0 32.16 0 16.32 0 0 Z " fill="#1D2935" transform="translate(0,0)"/>
<path d="M0 0 C5.26788323 2.8290484 10.08089798 6.07724494 12.375 11.8125 C13.36045945 17.47640329 12.85198876 21.76255297 9.8125 26.6875 C6.91556228 30.476319 4.08236848 33.54319171 -0.625 34.8125 C-6.56799495 35.51823065 -11.7191587 35.71526693 -17.1875 33.125 C-22.09672653 28.46752868 -25.90684419 24.16417789 -26.3125 17.25 C-26.23146959 10.58119759 -23.61833439 7.422584 -19.08203125 2.7734375 C-13.17241964 -1.94297749 -7.00303065 -2.29409625 0 0 Z " fill="#8027EA" transform="translate(31.625,7.1875)"/>
<path d="M0 0 C-0.4125 0.66 -0.825 1.32 -1.25 2 C-3.34213684 5.5865203 -5.17727335 9.27127492 -7 13 C-8.32 12.34 -9.64 11.68 -11 11 C-11 8 -11 8 -9.5 6.3125 C-9.005 5.879375 -8.51 5.44625 -8 5 C-9.65 5.66 -11.3 6.32 -13 7 C-13 8.65 -13 10.3 -13 12 C-13.66 12 -14.32 12 -15 12 C-15 11.01 -15 10.02 -15 9 C-16.65 8.67 -18.3 8.34 -20 8 C-20 7.34 -20 6.68 -20 6 C-19.33613281 5.81824219 -18.67226563 5.63648438 -17.98828125 5.44921875 C-12.38603818 3.86969081 -12.38603818 3.86969081 -7.1875 1.3125 C-4.59911064 -0.24053362 -2.96713718 -0.25432604 0 0 Z " fill="#D6BDDF" transform="translate(35,18)"/>
<path d="M0 0 C0.99 0.33 1.98 0.66 3 1 C2.21625 2.051875 1.4325 3.10375 0.625 4.1875 C-1.40508579 7.01696802 -2.89112979 9.67338936 -4 13 C-5.32 12.34 -6.64 11.68 -8 11 C-8 10.01 -8 9.02 -8 8 C-6.50390625 6.71875 -6.50390625 6.71875 -4.5625 5.5 C-1.40503705 3.53380379 -1.40503705 3.53380379 0 0 Z " fill="#ECE4DC" transform="translate(32,18)"/>
<path d="M0 0 C0.66 0.33 1.32 0.66 2 1 C0.625 2.5 0.625 2.5 -1 4 C-1.66 4 -2.32 4 -3 4 C-2.67 5.32 -2.34 6.64 -2 8 C-4.475 9.485 -4.475 9.485 -7 11 C-7 10.34 -7 9.68 -7 9 C-6.34 9 -5.68 9 -5 9 C-5.103125 8.071875 -5.20625 7.14375 -5.3125 6.1875 C-5.209375 5.135625 -5.10625 4.08375 -5 3 C-2.625 1.0625 -2.625 1.0625 0 0 Z " fill="#8E3EEC" transform="translate(27,22)"/>
</svg>
